<?xml version="1.0" encoding="UTF-8" standalone="no"?>
<svg
   xmlns:dc="http://purl.org/dc/elements/1.1/"
   xmlns:cc="http://creativecommons.org/ns#"
   xmlns:rdf="http://www.w3.org/1999/02/22-rdf-syntax-ns#"
   xmlns:svg="http://www.w3.org/2000/svg"
   xmlns="http://www.w3.org/2000/svg"
   viewBox="0 0 558.25293 193.36635"
   height="193.36635"
   width="558.25293"
   xml:space="preserve"
   id="svg2"
   version="1.1"><metadata
     id="metadata8"><rdf:RDF><cc:Work
         rdf:about=""><dc:format>image/svg+xml</dc:format><dc:type
           rdf:resource="http://purl.org/dc/dcmitype/StillImage" /><dc:title></dc:title></cc:Work></rdf:RDF></metadata><defs
     id="defs6"><clipPath
       id="clipPath18"
       clipPathUnits="userSpaceOnUse"><path
         id="path16"
         d="M 0,792 H 612 V 0 H 0 Z" /></clipPath></defs><g
     transform="matrix(1.3333333,0,0,-1.3333333,-129.86066,624.83785)"
     id="g10"><g
       id="g12"><g
         clip-path="url(#clipPath18)"
         id="g14"><g
           transform="translate(241.9922,448.6807)"
           id="g20"><path
             id="path22"
             style="fill:none;stroke:#2a6921;stroke-width:1.25;stroke-linecap:round;stroke-linejoin:round;stroke-miterlimit:4;stroke-dasharray:none;stroke-opacity:1"
             d="m 0,0 h 255.468 c 9.899,0 18,-8.072 18,-17.937 v -88.578 c 0,-9.865 -8.101,-17.937 -18,-17.937 H 0" /></g><g
           transform="translate(264.019,415.5142)"
           id="g24"><path
             id="path26"
             style="fill:#2a6921;fill-opacity:1;fill-rule:nonzero;stroke:none"
             d="m 0,0 c -0.084,1.174 1.174,1.929 2.516,1.929 1.341,0 2.39,-0.713 2.39,-1.887 0.419,-3.857 9.77,-12.328 11.95,-18.827 h 0.126 c 2.432,6.331 12.579,13.334 13.208,17.863 0,0.461 -0.125,1.09 -0.125,1.551 0,0.965 1.006,1.468 2.432,1.468 1.97,0 3.018,-0.881 3.018,-2.139 0,-0.503 -0.125,-1.006 -0.251,-1.341 v -20.505 c 0.251,-0.251 0.377,-0.755 0.377,-1.216 0,-1.51 -1.384,-2.139 -2.809,-2.139 -1.887,0 -2.516,0.713 -2.516,1.804 0,0.629 0.21,1.006 0.462,1.3 0,4.863 0,9.811 0.167,14.801 h -0.126 c -2.642,-4.487 -11.153,-12.704 -11.489,-16.143 -0.084,-1.216 -1.258,-1.552 -2.684,-1.552 -1.844,0 -2.809,0.713 -2.809,2.223 0,3.144 -6.29,10.314 -9.518,15.598 H 4.067 c 0.21,-4.78 0.168,-9.602 0.168,-14.34 0.377,-0.378 0.503,-0.965 0.503,-1.594 0,-1.216 -0.629,-2.097 -2.516,-2.097 -1.845,0 -2.599,1.007 -2.599,2.139 0,0.503 0.126,1.091 0.377,1.426 z" /></g><g
           transform="translate(264.019,415.5142)"
           id="g28"><path
             id="path30"
             style="fill:none;stroke:#2a6921;stroke-width:0.875;stroke-linecap:butt;stroke-linejoin:miter;stroke-miterlimit:4;stroke-dasharray:none;stroke-opacity:1"
             d="m 0,0 c -0.084,1.174 1.174,1.929 2.516,1.929 1.341,0 2.39,-0.713 2.39,-1.887 0.419,-3.857 9.77,-12.328 11.95,-18.827 h 0.126 c 2.432,6.331 12.579,13.334 13.208,17.863 0,0.461 -0.125,1.09 -0.125,1.551 0,0.965 1.006,1.468 2.432,1.468 1.97,0 3.018,-0.881 3.018,-2.139 0,-0.503 -0.125,-1.006 -0.251,-1.341 v -20.505 c 0.251,-0.251 0.377,-0.755 0.377,-1.216 0,-1.51 -1.384,-2.139 -2.809,-2.139 -1.887,0 -2.516,0.713 -2.516,1.804 0,0.629 0.21,1.006 0.462,1.3 0,4.863 0,9.811 0.167,14.801 h -0.126 c -2.642,-4.487 -11.153,-12.704 -11.489,-16.143 -0.084,-1.216 -1.258,-1.552 -2.684,-1.552 -1.844,0 -2.809,0.713 -2.809,2.223 0,3.144 -6.29,10.314 -9.518,15.598 H 4.067 c 0.21,-4.78 0.168,-9.602 0.168,-14.34 0.377,-0.378 0.503,-0.965 0.503,-1.594 0,-1.216 -0.629,-2.097 -2.516,-2.097 -1.845,0 -2.599,1.007 -2.599,2.139 0,0.503 0.126,1.091 0.377,1.426 z" /></g><g
           transform="translate(319.1201,402.9766)"
           id="g32"><path
             id="path34"
             style="fill:#2a6921;fill-opacity:1;fill-rule:nonzero;stroke:none"
             d="m 0,0 c -3.103,4.151 -9.016,6.751 -12.705,10.609 -0.839,0.251 -1.384,1.09 -1.384,2.097 0,1.173 1.426,2.348 2.768,2.348 1.258,0 2.263,-0.755 2.221,-1.762 2.936,-3.479 8.764,-6.331 11.49,-9.686 h 0.084 c 2.641,2.977 7.17,5.368 10.441,8.471 0.419,0.419 0.88,0.88 1.216,1.341 0.419,0.797 1.048,1.636 2.683,1.636 1.468,0 2.222,-1.133 2.222,-2.181 0,-1.006 -0.754,-1.635 -1.383,-2.264 C 17.024,9.98 15.934,9.267 15.263,8.722 11.824,5.745 7.254,3.229 4.696,-0.042 v -9.309 c 0.168,-0.251 0.419,-0.712 0.419,-1.173 0,-1.3 -0.964,-2.181 -3.228,-2.223 -1.426,-0.042 -2.348,0.336 -2.348,2.265 0,0.544 0.167,1.299 0.461,1.593 z" /></g><g
           transform="translate(319.1201,402.9766)"
           id="g36"><path
             id="path38"
             style="fill:none;stroke:#2a6921;stroke-width:0.875;stroke-linecap:butt;stroke-linejoin:miter;stroke-miterlimit:4;stroke-dasharray:none;stroke-opacity:1"
             d="m 0,0 c -3.103,4.151 -9.016,6.751 -12.705,10.609 -0.839,0.251 -1.384,1.09 -1.384,2.097 0,1.173 1.426,2.348 2.768,2.348 1.258,0 2.263,-0.755 2.221,-1.762 2.936,-3.479 8.764,-6.331 11.49,-9.686 h 0.084 c 2.641,2.977 7.17,5.368 10.441,8.471 0.419,0.419 0.88,0.88 1.216,1.341 0.419,0.797 1.048,1.636 2.683,1.636 1.468,0 2.222,-1.133 2.222,-2.181 0,-1.006 -0.754,-1.635 -1.383,-2.264 C 17.024,9.98 15.934,9.267 15.263,8.722 11.824,5.745 7.254,3.229 4.696,-0.042 v -9.309 c 0.168,-0.251 0.419,-0.712 0.419,-1.173 0,-1.3 -0.964,-2.181 -3.228,-2.223 -1.426,-0.042 -2.348,0.336 -2.348,2.265 0,0.544 0.167,1.299 0.461,1.593 z" /></g><g
           transform="translate(381.2656,413.166)"
           id="g40"><path
             id="path42"
             style="fill:#2a6921;fill-opacity:1;fill-rule:nonzero;stroke:none"
             d="m 0,0 c 0,-1.216 -1.091,-2.18 -2.684,-2.18 -1.215,0 -1.886,0.545 -2.222,1.719 -0.21,0.88 -2.348,1.635 -5.115,1.635 -7.213,0 -12.622,-6.457 -12.622,-13.082 0,-5.115 3.858,-7.716 7.925,-7.716 3.774,0 7.338,1.971 9.099,3.816 0.126,1.048 0.797,2.18 2.599,2.18 1.72,0 2.684,-1.132 2.684,-1.803 0,-0.671 -0.293,-1.425 -1.426,-2.473 -2.934,-2.6 -8.469,-5.619 -13.627,-5.535 -7.087,0 -11.825,3.857 -11.825,11.866 0,7.422 6.877,16.395 16.522,16.395 C -5.241,4.822 0,2.768 0,0" /></g><g
           transform="translate(381.2656,413.166)"
           id="g44"><path
             id="path46"
             style="fill:none;stroke:#2a6921;stroke-width:0.875;stroke-linecap:butt;stroke-linejoin:miter;stroke-miterlimit:4;stroke-dasharray:none;stroke-opacity:1"
             d="m 0,0 c 0,-1.216 -1.091,-2.18 -2.684,-2.18 -1.215,0 -1.886,0.545 -2.222,1.719 -0.21,0.88 -2.348,1.635 -5.115,1.635 -7.213,0 -12.622,-6.457 -12.622,-13.082 0,-5.115 3.858,-7.716 7.925,-7.716 3.774,0 7.338,1.971 9.099,3.816 0.126,1.048 0.797,2.18 2.599,2.18 1.72,0 2.684,-1.132 2.684,-1.803 0,-0.671 -0.293,-1.425 -1.426,-2.473 -2.934,-2.6 -8.469,-5.619 -13.627,-5.535 -7.087,0 -11.825,3.857 -11.825,11.866 0,7.422 6.877,16.395 16.522,16.395 C -5.241,4.822 0,2.768 0,0 Z" /></g><g
           transform="translate(404.623,404.6123)"
           id="g48"><path
             id="path50"
             style="fill:#2a6921;fill-opacity:1;fill-rule:nonzero;stroke:none"
             d="m 0,0 -4.486,7.757 -5.326,-8.344 z m -12.076,-4.109 c -3.69,-5.41 -4.361,-6.373 -4.403,-6.877 -0.042,-0.503 0.042,-1.048 0.042,-1.551 0,-0.797 -0.587,-1.804 -2.767,-1.804 -2.097,0 -2.684,1.049 -2.684,2.097 0,0.797 0.964,2.474 2.935,5.451 l 9.896,14.424 c 1.425,1.929 1.887,2.852 2.096,3.481 -0.125,1.551 1.175,2.725 2.978,2.725 1.173,0 2.305,-0.712 2.305,-1.593 0,-0.545 -0.251,-0.881 -0.251,-1.342 0,-0.964 5.577,-8.805 6.583,-10.525 4.152,-6.331 6.835,-11.111 6.835,-12.285 0,-1.51 -0.839,-2.433 -2.683,-2.433 -1.72,0 -2.684,0.671 -2.684,1.72 0,0.503 0.21,0.964 0.21,1.342 0,0.503 -0.755,2.054 -4.403,7.966 z" /></g><g
           transform="translate(404.623,404.6123)"
           id="g52"><path
             id="path54"
             style="fill:none;stroke:#2a6921;stroke-width:0.875;stroke-linecap:butt;stroke-linejoin:miter;stroke-miterlimit:4;stroke-dasharray:none;stroke-opacity:1"
             d="m 0,0 -4.486,7.757 -5.326,-8.344 z m -12.076,-4.109 c -3.69,-5.41 -4.361,-6.373 -4.403,-6.877 -0.042,-0.503 0.042,-1.048 0.042,-1.551 0,-0.797 -0.587,-1.804 -2.767,-1.804 -2.097,0 -2.684,1.049 -2.684,2.097 0,0.797 0.964,2.474 2.935,5.451 l 9.896,14.424 c 1.425,1.929 1.887,2.852 2.096,3.481 -0.125,1.551 1.175,2.725 2.978,2.725 1.173,0 2.305,-0.712 2.305,-1.593 0,-0.545 -0.251,-0.881 -0.251,-1.342 0,-0.964 5.577,-8.805 6.583,-10.525 4.152,-6.331 6.835,-11.111 6.835,-12.285 0,-1.51 -0.839,-2.433 -2.683,-2.433 -1.72,0 -2.684,0.671 -2.684,1.72 0,0.503 0.21,0.964 0.21,1.342 0,0.503 -0.755,2.054 -4.403,7.966 z" /></g><g
           transform="translate(448.4434,413.376)"
           id="g56"><path
             id="path58"
             style="fill:#2a6921;fill-opacity:1;fill-rule:nonzero;stroke:none"
             d="m 0,0 c 0,-0.839 -0.838,-1.761 -2.222,-1.761 -1.845,0 -2.683,0.587 -2.767,1.342 -0.629,0.628 -2.558,1.09 -5.032,1.09 -6.835,0 -12.37,-3.648 -12.37,-6.458 0,-1.383 1.09,-1.845 2.39,-1.845 1.552,0 3.857,0.378 6.751,1.09 2.768,0.671 5.703,1.175 8.512,1.175 4.696,0 8.595,-1.677 8.595,-5.703 0,-2.768 -1.341,-4.906 -3.647,-6.876 -4.277,-3.859 -11.195,-5.577 -17.695,-5.577 -7.086,0 -9.686,3.689 -9.686,5.241 0,1.678 1.006,2.683 2.726,2.683 1.55,0 2.096,-1.844 2.725,-2.725 0.88,-1.132 2.18,-1.51 4.487,-1.51 4.402,0 9.937,1.426 13.292,3.774 2.18,1.384 2.893,2.684 2.893,4.613 0,1.76 -1.258,2.347 -3.815,2.347 -2.684,0 -5.158,-0.461 -8.051,-1.131 -2.852,-0.671 -5.577,-1.132 -7.926,-1.132 -3.857,0 -6.457,1.425 -6.457,5.241 0,4.78 8.051,10.483 17.401,10.483 C -4.486,4.361 0,2.097 0,0" /></g><g
           transform="translate(448.4434,413.376)"
           id="g60"><path
             id="path62"
             style="fill:none;stroke:#2a6921;stroke-width:0.875;stroke-linecap:butt;stroke-linejoin:miter;stroke-miterlimit:4;stroke-dasharray:none;stroke-opacity:1"
             d="m 0,0 c 0,-0.839 -0.838,-1.761 -2.222,-1.761 -1.845,0 -2.683,0.587 -2.767,1.342 -0.629,0.628 -2.558,1.09 -5.032,1.09 -6.835,0 -12.37,-3.648 -12.37,-6.458 0,-1.383 1.09,-1.845 2.39,-1.845 1.552,0 3.857,0.378 6.751,1.09 2.768,0.671 5.703,1.175 8.512,1.175 4.696,0 8.595,-1.677 8.595,-5.703 0,-2.768 -1.341,-4.906 -3.647,-6.876 -4.277,-3.859 -11.195,-5.577 -17.695,-5.577 -7.086,0 -9.686,3.689 -9.686,5.241 0,1.678 1.006,2.683 2.726,2.683 1.55,0 2.096,-1.844 2.725,-2.725 0.88,-1.132 2.18,-1.51 4.487,-1.51 4.402,0 9.937,1.426 13.292,3.774 2.18,1.384 2.893,2.684 2.893,4.613 0,1.76 -1.258,2.347 -3.815,2.347 -2.684,0 -5.158,-0.461 -8.051,-1.131 -2.852,-0.671 -5.577,-1.132 -7.926,-1.132 -3.857,0 -6.457,1.425 -6.457,5.241 0,4.78 8.051,10.483 17.401,10.483 C -4.486,4.361 0,2.097 0,0 Z" /></g><g
           transform="translate(464.5068,394.1299)"
           id="g64"><path
             id="path66"
             style="fill:#2a6921;fill-opacity:1;fill-rule:nonzero;stroke:none"
             d="m 0,0 17.023,1.132 c 0.378,0.293 0.839,0.671 1.468,0.671 1.552,0 2.558,-1.174 2.558,-2.097 0,-2.013 -1.174,-2.39 -3.564,-2.349 L 0.084,-3.774 c -0.336,-0.461 -1.342,-0.88 -2.642,-0.88 -1.383,0 -2.683,0.754 -2.683,2.389 0,0.755 0.251,1.426 0.545,2.013 v 7.59 c -0.503,0.461 -0.713,1.09 -0.713,2.096 0,0.922 0.377,1.761 0.713,2.139 v 6.289 c -0.671,0.42 -0.923,1.132 -0.923,1.887 0,0.839 0.336,1.594 0.713,1.845 -0.168,0.21 -0.251,0.42 -0.251,0.671 0,0.922 1.216,1.551 2.599,1.551 1.761,0 2.6,-0.838 2.516,-1.677 l 15.221,1.007 c 0.503,0.377 1.133,0.67 1.719,0.67 1.677,0 2.516,-1.048 2.516,-2.096 0,-1.636 -1.049,-2.767 -2.6,-2.767 -0.67,0 -1.215,0.167 -1.677,0.461 L 0,18.365 V 11.53 l 12.411,1.301 c 0.462,0.377 1.091,0.67 1.678,0.67 1.468,0 2.515,-1.216 2.515,-2.432 0,-1.509 -1.047,-2.264 -2.557,-2.264 -0.461,0 -0.965,0.126 -1.3,0.336 L 0,7.799 Z" /></g><g
           transform="translate(464.5068,394.1299)"
           id="g68"><path
             id="path70"
             style="fill:none;stroke:#2a6921;stroke-width:0.875;stroke-linecap:butt;stroke-linejoin:miter;stroke-miterlimit:4;stroke-dasharray:none;stroke-opacity:1"
             d="m 0,0 17.023,1.132 c 0.378,0.293 0.839,0.671 1.468,0.671 1.552,0 2.558,-1.174 2.558,-2.097 0,-2.013 -1.174,-2.39 -3.564,-2.349 L 0.084,-3.774 c -0.336,-0.461 -1.342,-0.88 -2.642,-0.88 -1.383,0 -2.683,0.754 -2.683,2.389 0,0.755 0.251,1.426 0.545,2.013 v 7.59 c -0.503,0.461 -0.713,1.09 -0.713,2.096 0,0.922 0.377,1.761 0.713,2.139 v 6.289 c -0.671,0.42 -0.923,1.132 -0.923,1.887 0,0.839 0.336,1.594 0.713,1.845 -0.168,0.21 -0.251,0.42 -0.251,0.671 0,0.922 1.216,1.551 2.599,1.551 1.761,0 2.6,-0.838 2.516,-1.677 l 15.221,1.007 c 0.503,0.377 1.133,0.67 1.719,0.67 1.677,0 2.516,-1.048 2.516,-2.096 0,-1.636 -1.049,-2.767 -2.6,-2.767 -0.67,0 -1.215,0.167 -1.677,0.461 L 0,18.365 V 11.53 l 12.411,1.301 c 0.462,0.377 1.091,0.67 1.678,0.67 1.468,0 2.515,-1.216 2.515,-2.432 0,-1.509 -1.047,-2.264 -2.557,-2.264 -0.461,0 -0.965,0.126 -1.3,0.336 L 0,7.799 Z" /></g><g
           transform="translate(281.6519,355.0605)"
           id="g72"><path
             id="path74"
             style="fill:#231f20;fill-opacity:1;fill-rule:nonzero;stroke:none"
             d="m 0,0 c 1.234,0 2.91,0.22 2.91,2.16 v 0.793 c 0,1.94 -1.543,2.16 -2.91,2.16 H -10.492 V 0 Z m -0.309,11.108 c 1.235,0 2.91,0.221 2.91,2.161 v 0.793 c 0,1.896 -1.543,2.16 -2.91,2.16 H -10.492 V 11.108 Z M -18.294,-6.084 v 28.478 c 0,0.837 0.485,1.322 1.322,1.322 H 0.221 c 7.449,0 10.404,-3.13 10.491,-8.817 v -0.44 c 0,-3.042 -0.969,-5.069 -2.601,-6.26 1.72,-1.234 2.822,-3.35 2.822,-6.568 V 1.234 c 0,-5.642 -2.954,-8.64 -10.404,-8.64 h -17.501 c -0.837,0 -1.322,0.485 -1.322,1.322" /></g><g
           transform="translate(281.6519,355.0605)"
           id="g76"><path
             id="path78"
             style="fill:none;stroke:#231f20;stroke-width:0.5;stroke-linecap:butt;stroke-linejoin:miter;stroke-miterlimit:4;stroke-dasharray:none;stroke-opacity:1"
             d="m 0,0 c 1.234,0 2.91,0.22 2.91,2.16 v 0.793 c 0,1.94 -1.543,2.16 -2.91,2.16 H -10.492 V 0 Z m -0.309,11.108 c 1.235,0 2.91,0.221 2.91,2.161 v 0.793 c 0,1.896 -1.543,2.16 -2.91,2.16 H -10.492 V 11.108 Z M -18.294,-6.084 v 28.478 c 0,0.837 0.485,1.322 1.322,1.322 H 0.221 c 7.449,0 10.404,-3.13 10.491,-8.817 v -0.44 c 0,-3.042 -0.969,-5.069 -2.601,-6.26 1.72,-1.234 2.822,-3.35 2.822,-6.568 V 1.234 c 0,-5.642 -2.954,-8.64 -10.404,-8.64 h -17.501 c -0.837,0 -1.322,0.485 -1.322,1.322 z" /></g><g
           transform="translate(298.4004,358.3662)"
           id="g80"><path
             id="path82"
             style="fill:#231f20;fill-opacity:1;fill-rule:nonzero;stroke:none"
             d="m 0,0 v 19.088 c 0,0.838 0.485,1.322 1.323,1.322 h 5.201 c 0.838,0 1.323,-0.484 1.323,-1.322 V -0.265 c 0,-2.644 1.058,-2.953 2.601,-2.953 H 20.72 c 1.542,0 2.6,0.309 2.6,2.953 v 19.353 c 0,0.838 0.485,1.322 1.323,1.322 h 5.202 c 0.837,0 1.322,-0.484 1.322,-1.322 L 31.167,0 c 0,-6.304 -3.395,-10.712 -10.447,-10.712 H 10.448 C 3.395,-10.712 0,-6.304 0,0" /></g><g
           transform="translate(298.4004,358.3662)"
           id="g84"><path
             id="path86"
             style="fill:none;stroke:#231f20;stroke-width:0.5;stroke-linecap:butt;stroke-linejoin:miter;stroke-miterlimit:4;stroke-dasharray:none;stroke-opacity:1"
             d="m 0,0 v 19.088 c 0,0.838 0.485,1.322 1.323,1.322 h 5.201 c 0.838,0 1.323,-0.484 1.323,-1.322 V -0.265 c 0,-2.644 1.058,-2.953 2.601,-2.953 H 20.72 c 1.542,0 2.6,0.309 2.6,2.953 v 19.353 c 0,0.838 0.485,1.322 1.323,1.322 h 5.202 c 0.837,0 1.322,-0.484 1.322,-1.322 L 31.167,0 c 0,-6.304 -3.395,-10.712 -10.447,-10.712 H 10.448 C 3.395,-10.712 0,-6.304 0,0 Z" /></g><g
           transform="translate(337.543,348.9766)"
           id="g88"><path
             id="path90"
             style="fill:#231f20;fill-opacity:1;fill-rule:nonzero;stroke:none"
             d="M 0,0 V 28.478 C 0,29.315 0.484,29.8 1.322,29.8 H 6.48 c 0.837,0 1.323,-0.485 1.323,-1.322 L 7.803,0 c 0,-0.837 -0.486,-1.322 -1.323,-1.322 H 1.322 C 0.484,-1.322 0,-0.837 0,0" /></g><g
           transform="translate(337.543,348.9766)"
           id="g92"><path
             id="path94"
             style="fill:none;stroke:#231f20;stroke-width:0.5;stroke-linecap:butt;stroke-linejoin:miter;stroke-miterlimit:4;stroke-dasharray:none;stroke-opacity:1"
             d="M 0,0 V 28.478 C 0,29.315 0.484,29.8 1.322,29.8 H 6.48 c 0.837,0 1.323,-0.485 1.323,-1.322 L 7.803,0 c 0,-0.837 -0.486,-1.322 -1.323,-1.322 H 1.322 C 0.484,-1.322 0,-0.837 0,0 Z" /></g><g
           transform="translate(353.8086,348.9766)"
           id="g96"><path
             id="path98"
             style="fill:#231f20;fill-opacity:1;fill-rule:nonzero;stroke:none"
             d="M 0,0 V 28.478 C 0,29.315 0.484,29.8 1.322,29.8 h 5.202 c 0.837,0 1.323,-0.485 1.323,-1.322 V 6.172 h 16.09 c 0.837,0 1.322,-0.485 1.322,-1.322 V 0 c 0,-0.837 -0.485,-1.322 -1.322,-1.322 H 1.322 C 0.484,-1.322 0,-0.837 0,0" /></g><g
           transform="translate(353.8086,348.9766)"
           id="g100"><path
             id="path102"
             style="fill:none;stroke:#231f20;stroke-width:0.5;stroke-linecap:butt;stroke-linejoin:miter;stroke-miterlimit:4;stroke-dasharray:none;stroke-opacity:1"
             d="M 0,0 V 28.478 C 0,29.315 0.484,29.8 1.322,29.8 h 5.202 c 0.837,0 1.323,-0.485 1.323,-1.322 V 6.172 h 16.09 c 0.837,0 1.322,-0.485 1.322,-1.322 V 0 c 0,-0.837 -0.485,-1.322 -1.322,-1.322 H 1.322 C 0.484,-1.322 0,-0.837 0,0 Z" /></g><g
           transform="translate(404.457,355.0605)"
           id="g104"><path
             id="path106"
             style="fill:#231f20;fill-opacity:1;fill-rule:nonzero;stroke:none"
             d="m 0,0 c 1.983,0 3.615,0.44 3.615,4.187 v 7.803 c 0,3.747 -1.499,4.232 -3.615,4.232 H -11.329 V 0 Z m -19.176,-6.084 v 28.478 c 0,0.837 0.485,1.322 1.322,1.322 H 0.97 c 7.009,0 10.403,-4.144 10.403,-11.682 V 4.1 C 11.373,-3.395 7.979,-7.406 0.97,-7.406 h -18.824 c -0.837,0 -1.322,0.485 -1.322,1.322" /></g><g
           transform="translate(404.457,355.0605)"
           id="g108"><path
             id="path110"
             style="fill:none;stroke:#231f20;stroke-width:0.5;stroke-linecap:butt;stroke-linejoin:miter;stroke-miterlimit:4;stroke-dasharray:none;stroke-opacity:1"
             d="m 0,0 c 1.983,0 3.615,0.44 3.615,4.187 v 7.803 c 0,3.747 -1.499,4.232 -3.615,4.232 H -11.329 V 0 Z m -19.176,-6.084 v 28.478 c 0,0.837 0.485,1.322 1.322,1.322 H 0.97 c 7.009,0 10.403,-4.144 10.403,-11.682 V 4.1 C 11.373,-3.395 7.979,-7.406 0.97,-7.406 h -18.824 c -0.837,0 -1.322,0.485 -1.322,1.322 z" /></g><g
           transform="translate(423.2773,348.9766)"
           id="g112"><path
             id="path114"
             style="fill:#231f20;fill-opacity:1;fill-rule:nonzero;stroke:none"
             d="M 0,0 V 28.478 C 0,29.315 0.484,29.8 1.322,29.8 h 23.673 c 0.837,0 1.322,-0.485 1.322,-1.322 v -4.849 c 0,-0.838 -0.485,-1.323 -1.322,-1.323 H 7.803 V 17.722 H 18.25 c 0.838,0 1.322,-0.486 1.322,-1.323 v -4.144 c 0,-0.837 -0.484,-1.322 -1.322,-1.322 H 7.803 V 6.172 h 17.192 c 0.837,0 1.322,-0.485 1.322,-1.322 V 0 c 0,-0.837 -0.485,-1.322 -1.322,-1.322 H 1.322 C 0.484,-1.322 0,-0.837 0,0" /></g><g
           transform="translate(423.2773,348.9766)"
           id="g116"><path
             id="path118"
             style="fill:none;stroke:#231f20;stroke-width:0.5;stroke-linecap:butt;stroke-linejoin:miter;stroke-miterlimit:4;stroke-dasharray:none;stroke-opacity:1"
             d="M 0,0 V 28.478 C 0,29.315 0.484,29.8 1.322,29.8 h 23.673 c 0.837,0 1.322,-0.485 1.322,-1.322 v -4.849 c 0,-0.838 -0.485,-1.323 -1.322,-1.323 H 7.803 V 17.722 H 18.25 c 0.838,0 1.322,-0.486 1.322,-1.323 v -4.144 c 0,-0.837 -0.484,-1.322 -1.322,-1.322 H 7.803 V 6.172 h 17.192 c 0.837,0 1.322,-0.485 1.322,-1.322 V 0 c 0,-0.837 -0.485,-1.322 -1.322,-1.322 H 1.322 C 0.484,-1.322 0,-0.837 0,0 Z" /></g><g
           transform="translate(464.7568,362.1572)"
           id="g120"><path
             id="path122"
             style="fill:#231f20;fill-opacity:1;fill-rule:nonzero;stroke:none"
             d="m 0,0 h 8.816 c 3.307,0 5.378,0.441 5.378,4.188 v 0.706 c 0,3.747 -1.939,4.231 -5.378,4.231 H 0 Z m 16.267,-6.524 4.452,-6.392 c 0.617,-0.926 0.22,-1.587 -0.838,-1.587 H 13.93 c -0.705,0 -1.235,0.265 -1.587,0.882 L 8.464,-7.405 H 0 v -5.776 c 0,-0.837 -0.485,-1.322 -1.322,-1.322 h -5.202 c -0.838,0 -1.323,0.485 -1.323,1.322 v 28.478 c 0,0.838 0.485,1.322 1.323,1.322 H 9.478 c 8.816,0 12.607,-4.143 12.607,-11.682 V 4.1 c 0,-5.07 -1.675,-8.949 -5.818,-10.624" /></g><g
           transform="translate(464.7568,362.1572)"
           id="g124"><path
             id="path126"
             style="fill:none;stroke:#231f20;stroke-width:0.5;stroke-linecap:butt;stroke-linejoin:miter;stroke-miterlimit:4;stroke-dasharray:none;stroke-opacity:1"
             d="m 0,0 h 8.816 c 3.307,0 5.378,0.441 5.378,4.188 v 0.706 c 0,3.747 -1.939,4.231 -5.378,4.231 H 0 Z m 16.267,-6.524 4.452,-6.392 c 0.617,-0.926 0.22,-1.587 -0.838,-1.587 H 13.93 c -0.705,0 -1.235,0.265 -1.587,0.882 L 8.464,-7.405 H 0 v -5.776 c 0,-0.837 -0.485,-1.322 -1.322,-1.322 h -5.202 c -0.838,0 -1.323,0.485 -1.323,1.322 v 28.478 c 0,0.838 0.485,1.322 1.323,1.322 H 9.478 c 8.816,0 12.607,-4.143 12.607,-11.682 V 4.1 c 0,-5.07 -1.675,-8.949 -5.818,-10.624 z" /></g><g
           transform="translate(491.9648,414.8716)"
           id="g128"><path
             id="path130"
             style="fill:#2a6921;fill-opacity:1;fill-rule:nonzero;stroke:none"
             d="M 0,0 H 1.001 C 1.639,0 1.82,0.169 1.82,0.702 1.82,1.105 1.586,1.248 0.807,1.248 H 0 Z m 0,-3.107 h -1.144 v 5.291 h 1.99 c 1.378,0 2.171,-0.39 2.171,-1.599 0,-0.975 -0.573,-1.352 -1.314,-1.404 L 2.926,-3.107 H 1.664 L 0.533,-0.936 H 0 Z m 0.819,6.318 c -1.95,0 -3.497,-1.495 -3.497,-3.679 0,-2.184 1.547,-3.679 3.497,-3.679 1.911,0 3.497,1.495 3.497,3.679 0,2.184 -1.586,3.679 -3.497,3.679 M -4.16,-0.468 c 0,3.029 2.379,4.823 4.979,4.823 2.601,0 4.98,-1.794 4.98,-4.823 0,-3.029 -2.379,-4.823 -4.98,-4.823 -2.6,0 -4.979,1.794 -4.979,4.823" /></g><g
           transform="translate(229.855,449.6094)"
           id="g132"><path
             id="path134"
             style="fill:#2a6921;fill-opacity:1;fill-rule:nonzero;stroke:none"
             d="m 0,0 h -37.165 v 14.204 c 0,2.659 -2.156,4.815 -4.814,4.815 h -31.509 c -2.658,0 -4.814,-2.156 -4.814,-4.815 V 0 h -37.161 c -9.192,0 -16.699,-7.507 -16.699,-16.695 v -41.488 c 14.11,23.896 43.064,40.33 76.439,40.33 30.465,0 57.244,-13.694 72.417,-34.255 v 35.413 C 16.694,-7.507 9.188,0 0,0 m -47.153,0 h -21.161 v 9.37 c 0,0.824 0.668,1.494 1.494,1.494 h 18.173 c 0.825,0 1.494,-0.67 1.494,-1.494 z" /></g><g
           transform="translate(246.2515,341.3779)"
           id="g136"><path
             id="path138"
             style="fill:#231f20;fill-opacity:1;fill-rule:nonzero;stroke:none"
             d="m 0,0 c 0.016,3.498 0.001,40.607 0.001,40.607 0,0 -1.186,2.528 -4.392,6.03 L -7.407,30.828 c -0.418,-2.011 -2.195,-3.472 -4.266,-3.385 l -14.05,0.961 -5.705,-8.375 5.968,-12.548 -0.005,0.005 c 0.943,-1.874 0.342,-4.155 -1.394,-5.325 l -9.762,-6.401 c -1.715,-1.127 -4.004,-0.906 -5.408,0.622 l -9.26,10.619 -9.955,-1.899 -4.651,-13.086 10e-4,0.007 c -0.659,-1.991 -2.697,-3.18 -4.752,-2.779 l -11.651,2.42 c -2.044,0.449 -3.438,2.352 -3.249,4.441 l -0.004,-0.006 0.946,13.855 -8.377,5.707 -12.722,-6.053 c -1.895,-0.842 -4.084,-0.133 -5.208,1.581 l -6.405,9.761 c -1.127,1.764 -0.768,4.097 0.841,5.44 l -0.006,-0.005 10.471,9.136 -1.898,9.955 -13.269,4.712 c -1.937,0.744 -2.983,2.794 -2.566,4.802 l 2.222,12.7 c -9.216,-3.009 -20.329,-13.427 -27.335,-27.335 L -148.855,0 c 0,-9.187 7.505,-16.697 16.696,-16.697 H -16.694 C -6.788,-16.697 0,-8.349 0,0" /></g><g
           transform="translate(204.9883,390.9375)"
           id="g140"><path
             id="path142"
             style="fill:#231f20;fill-opacity:1;fill-rule:nonzero;stroke:none"
             d="m 0,0 c 0,-12.609 -10.222,-22.831 -22.832,-22.831 -12.61,0 -22.833,10.222 -22.833,22.831 0,12.61 10.223,22.832 22.833,22.832 C -10.222,22.832 0,12.61 0,0" /></g></g></g></g></svg>